<svg width="24" height="15" viewBox="0 0 24 15" fill="none" xmlns="http://www.w3.org/2000/svg">
<path d="M18.5066 14.5606C19.34 14.5606 20.0643 14.3702 20.6795 13.9893C21.2947 13.6084 21.7488 13.0664 22.0418 12.3633H22.1004V13.75C22.1004 14.0039 22.1737 14.2041 22.3201 14.3506C22.4666 14.4971 22.6538 14.5703 22.8816 14.5703C23.116 14.5703 23.3065 14.4954 23.4529 14.3457C23.5994 14.196 23.6726 13.9942 23.6726 13.7403V4.48246C23.6726 4.23506 23.5994 4.0316 23.4529 3.8721C23.3065 3.7126 23.116 3.63285 22.8816 3.63285C22.6538 3.63285 22.4666 3.7126 22.3201 3.8721C22.1737 4.0316 22.1004 4.23506 22.1004 4.48246V5.85941H22.0418C21.8465 5.40368 21.5747 5.0098 21.2264 4.67777C20.8781 4.34573 20.4712 4.09183 20.0056 3.91605C19.5402 3.74027 19.0405 3.65238 18.5066 3.65238C17.6212 3.65238 16.8481 3.88024 16.1873 4.33597C15.5265 4.7917 15.0122 5.42972 14.6443 6.25003C14.2765 7.07034 14.0926 8.02412 14.0926 9.11136C14.0926 10.2051 14.2765 11.1605 14.6443 11.9776C15.0122 12.7947 15.5265 13.4294 16.1873 13.8819C16.8481 14.3344 17.6212 14.5606 18.5066 14.5606ZM18.8973 13.1348C18.2658 13.1348 17.7157 12.9704 17.2469 12.6416C16.7781 12.3129 16.4168 11.8474 16.1629 11.2452C15.909 10.6429 15.782 9.93165 15.782 9.11136C15.782 8.28454 15.909 7.57002 16.1629 6.96781C16.4168 6.36559 16.7781 5.9001 17.2469 5.57132C17.7157 5.24254 18.2658 5.07816 18.8973 5.07816C19.5288 5.07816 20.0822 5.2458 20.5574 5.58109C21.0327 5.91637 21.4005 6.38838 21.6609 6.9971C21.9213 7.60582 22.0515 8.31709 22.0515 9.13089C22.0515 9.94469 21.923 10.6511 21.6658 11.25C21.4087 11.849 21.0425 12.3129 20.5672 12.6416C20.092 12.9704 19.5353 13.1348 18.8973 13.1348ZM1.74884 14.4922C2.00926 14.4922 2.21108 14.4369 2.35431 14.3262C2.49753 14.2155 2.61472 14.0235 2.70587 13.75L3.96564 10.3028H9.72736L10.9871 13.75C11.0783 14.0235 11.1955 14.2155 11.3387 14.3262C11.4819 14.4369 11.6805 14.4922 11.9344 14.4922C12.1948 14.4922 12.4015 14.4206 12.5545 14.2774C12.7075 14.1341 12.784 13.9388 12.784 13.6914C12.784 13.5417 12.7482 13.3659 12.6765 13.1641L8.0965 0.966827C7.97931 0.667348 7.8198 0.442738 7.61798 0.292999C7.41616 0.14326 7.159 0.0683899 6.8465 0.0683899C6.24103 0.0683899 5.83087 0.364614 5.61603 0.957062L1.03595 13.1739C0.964335 13.3757 0.928528 13.5515 0.928528 13.7012C0.928528 13.9486 1.00177 14.1423 1.14825 14.2823C1.29474 14.4222 1.49493 14.4922 1.74884 14.4922ZM4.44415 8.81839L6.8172 2.24613H6.86603L9.23908 8.81839H4.44415Z" fill="#929090" fill-opacity="0.85"/>
</svg>
