<svg width="21" height="21" viewBox="0 0 21 21" fill="none" xmlns="http://www.w3.org/2000/svg">
    <path d="M3.79663 19.2887H15.2614C16.1404 19.2887 16.8223 19.0364 17.3073 18.5318C17.7924 18.0273 18.0349 17.2704 18.0349 16.2613V5.82187L16.4626 7.39414V16.1832C16.4626 16.691 16.3422 17.0735 16.1013 17.3307C15.8605 17.5878 15.574 17.7164 15.2419 17.7164H3.82592C3.33764 17.7164 2.96167 17.5878 2.69799 17.3307C2.43433 17.0735 2.30249 16.691 2.30249 16.1832V5.09922C2.30249 4.59141 2.43433 4.20729 2.69799 3.94687C2.96167 3.68646 3.33764 3.55625 3.82592 3.55625H12.7224L14.2947 1.98398H3.79663C2.78101 1.98398 2.01603 2.23626 1.50171 2.74082C0.987386 3.24538 0.730225 4.00222 0.730225 5.01133V16.2613C0.730225 17.2704 0.987386 18.0273 1.50171 18.5318C2.01603 19.0364 2.78101 19.2887 3.79663 19.2887ZM7.35131 12.9605L9.25561 12.1305L18.3767 3.01914L17.0388 1.70078L7.92749 10.8121L7.04858 12.648C7.00952 12.7327 7.02743 12.8157 7.10229 12.8971C7.17717 12.9784 7.26017 12.9996 7.35131 12.9605ZM19.0993 2.30625L19.8025 1.58359C19.9653 1.40781 20.0483 1.21413 20.0515 1.00254C20.0548 0.790951 19.9718 0.603776 19.8025 0.441016L19.5779 0.206641C19.4281 0.0569011 19.2475 -0.0114584 19.0359 0.0015625C18.8243 0.0145833 18.6371 0.0992188 18.4743 0.255469L17.7614 0.958594L19.0993 2.30625Z"
          fill="#929090" fill-opacity="0.85"/>
</svg>
