<svg width="20" height="24" viewBox="0 0 20 24" fill="none" xmlns="http://www.w3.org/2000/svg">
<g clip-path="url(#clip0_2_2889)">
<path d="M5.08533 21.748H14.0404C14.737 21.748 15.3035 21.5397 15.7397 21.123C16.1759 20.7063 16.4102 20.1465 16.4428 19.4434L17.1166 5.24414H18.2885C18.4903 5.24414 18.6612 5.1709 18.8012 5.02441C18.9411 4.87793 19.0111 4.70378 19.0111 4.50195C19.0111 4.30013 18.9395 4.12761 18.7963 3.98438C18.6531 3.84115 18.4838 3.76953 18.2885 3.76953H0.83728C0.641968 3.76953 0.471069 3.84277 0.324585 3.98926C0.178101 4.13574 0.104858 4.30664 0.104858 4.50195C0.104858 4.70378 0.178101 4.87793 0.324585 5.02441C0.471069 5.1709 0.641968 5.24414 0.83728 5.24414H2.00916L2.68298 19.4531C2.71553 20.1562 2.94828 20.7145 3.38123 21.1279C3.81417 21.5413 4.3822 21.748 5.08533 21.748ZM5.22205 20.2734C4.9421 20.2734 4.70773 20.179 4.51892 19.9902C4.33012 19.8014 4.22921 19.5638 4.21619 19.2773L3.53259 5.24414H15.5444L14.8998 19.2773C14.8868 19.5703 14.7859 19.8096 14.5971 19.9951C14.4083 20.1806 14.1706 20.2734 13.8842 20.2734H5.22205ZM6.66736 18.6035C6.84965 18.6035 6.99613 18.5498 7.10681 18.4424C7.21749 18.3349 7.27283 18.1966 7.27283 18.0273L6.97009 7.57812C6.97009 7.40885 6.91313 7.27214 6.7992 7.16797C6.68527 7.0638 6.54041 7.01172 6.36463 7.01172C6.18233 7.01172 6.03422 7.06543 5.92029 7.17285C5.80635 7.28027 5.75265 7.41862 5.75916 7.58789L6.05213 18.0273C6.05863 18.2031 6.11723 18.3431 6.22791 18.4473C6.33858 18.5514 6.48506 18.6035 6.66736 18.6035ZM9.55798 18.6035C9.74679 18.6035 9.89978 18.5498 10.017 18.4424C10.1342 18.3349 10.1928 18.1966 10.1928 18.0273V7.58789C10.1928 7.41862 10.1342 7.28027 10.017 7.17285C9.89978 7.06543 9.74679 7.01172 9.55798 7.01172C9.37569 7.01172 9.22596 7.06543 9.10877 7.17285C8.99158 7.28027 8.93298 7.41862 8.93298 7.58789V18.0273C8.93298 18.1966 8.99158 18.3349 9.10877 18.4424C9.22596 18.5498 9.37569 18.6035 9.55798 18.6035ZM12.4584 18.6035C12.6342 18.6035 12.7774 18.5514 12.8881 18.4473C12.9987 18.3431 13.0573 18.2031 13.0639 18.0273L13.3569 7.58789C13.3633 7.41862 13.3112 7.28027 13.2006 7.17285C13.0899 7.06543 12.9402 7.01172 12.7514 7.01172C12.5756 7.01172 12.4323 7.0638 12.3217 7.16797C12.211 7.27214 12.1524 7.41211 12.1459 7.58789L11.8529 18.0273C11.8464 18.1966 11.8985 18.3349 12.0092 18.4424C12.1198 18.5498 12.2696 18.6035 12.4584 18.6035ZM5.27088 4.46289H6.82361V2.37305C6.82361 2.09961 6.91313 1.87825 7.09216 1.70898C7.2712 1.53971 7.5072 1.45508 7.80017 1.45508H11.2963C11.5893 1.45508 11.8253 1.53971 12.0043 1.70898C12.1833 1.87825 12.2729 2.09961 12.2729 2.37305V4.46289H13.8256V2.27539C13.8256 1.57226 13.6091 1.01725 13.1762 0.610352C12.7432 0.203451 12.1524 0 11.4037 0H7.69275C6.94405 0 6.35323 0.203451 5.92029 0.610352C5.48735 1.01725 5.27088 1.57226 5.27088 2.27539V4.46289Z" fill="#929090"/>
</g>
<defs>
<clipPath id="clip0_2_2889">
<rect width="18.9062" height="23.4863" fill="white" transform="translate(0.104858)"/>
</clipPath>
</defs>
</svg>
